<svg width="24" height="24" viewBox="0 0 24 24" fill="none" xmlns="http://www.w3.org/2000/svg">
<path d="M3.8833 11.2501C3.46909 11.2501 3.1333 11.5859 3.1333 12.0001C3.1333 12.4143 3.46909 12.7501 3.8833 12.7501V11.2501ZM20.1169 12.0001L20.6693 12.5073C20.9327 12.2204 20.9327 11.7797 20.6693 11.4928L20.1169 12.0001ZM16.3482 6.78669C16.068 6.48159 15.5936 6.46135 15.2885 6.7415C14.9834 7.02165 14.9631 7.49609 15.2433 7.8012L16.3482 6.78669ZM15.2433 16.199C14.9631 16.5041 14.9834 16.9785 15.2885 17.2587C15.5936 17.5388 16.068 17.5186 16.3482 17.2135L15.2433 16.199ZM3.8833 12.7501H20.1169V11.2501H3.8833V12.7501ZM15.2433 7.8012L19.5644 12.5073L20.6693 11.4928L16.3482 6.78669L15.2433 7.8012ZM19.5644 11.4928L15.2433 16.199L16.3482 17.2135L20.6693 12.5073L19.5644 11.4928Z" fill="white"/>
</svg>
