<svg width="24" height="24" viewBox="0 0 24 24" fill="none" xmlns="http://www.w3.org/2000/svg">
<g clip-path="url(#clip0_2601_8740)">
<path d="M24 12.001C23.9996 9.70787 23.3422 7.46281 22.1056 5.53165C20.8689 3.60049 19.1048 2.06411 17.0221 1.10439C14.9394 0.144672 12.6254 -0.198195 10.3538 0.116382C8.08235 0.430959 5.94854 1.3898 4.20505 2.87941C2.46156 4.36901 1.18139 6.32698 0.516104 8.52154C-0.149185 10.7161 -0.171736 13.0553 0.451122 15.2623C1.07398 17.4693 2.31616 19.4516 4.03061 20.9745C5.74506 22.4974 7.85999 23.4972 10.125 23.8555V15.4698H7.0785V12.001H10.125V9.3573C10.125 6.3498 11.9167 4.68855 14.6572 4.68855C15.5573 4.70103 16.4551 4.77924 17.3438 4.92255V7.87605H15.8302C15.5723 7.84179 15.31 7.86602 15.0628 7.94692C14.8155 8.02783 14.5896 8.16334 14.4018 8.34342C14.214 8.52349 14.0691 8.74352 13.978 8.98719C13.8868 9.23086 13.8516 9.49193 13.875 9.75105V12.001H17.2035L16.671 15.4698H13.875V23.8555C16.6978 23.409 19.2686 21.9696 21.1248 19.7964C22.9809 17.6233 24.0005 14.859 24 12.001Z" fill="white" fill-opacity="0.6"/>
</g>
<defs>
<clipPath id="clip0_2601_8740">
<rect width="24" height="24" fill="white"/>
</clipPath>
</defs>
</svg>
