<svg width="24" height="24" viewBox="0 0 24 24" fill="none" xmlns="http://www.w3.org/2000/svg">
<path d="M13.4787 4.92878C13.4787 5.74538 12.8167 6.40737 12.0001 6.40737C11.1835 6.40737 10.5215 5.74538 10.5215 4.92878C10.5215 4.11218 11.1835 3.4502 12.0001 3.4502C12.8167 3.4502 13.4787 4.11218 13.4787 4.92878Z" fill="#767676"/>
<path d="M13.4787 12.0002C13.4787 12.8168 12.8167 13.4788 12.0001 13.4788C11.1835 13.4788 10.5215 12.8168 10.5215 12.0002C10.5215 11.1836 11.1835 10.5216 12.0001 10.5216C12.8167 10.5216 13.4787 11.1836 13.4787 12.0002Z" fill="#767676"/>
<path d="M13.4787 19.0717C13.4787 19.8883 12.8167 20.5503 12.0001 20.5503C11.1835 20.5503 10.5215 19.8883 10.5215 19.0717C10.5215 18.2551 11.1835 17.5931 12.0001 17.5931C12.8167 17.5931 13.4787 18.2551 13.4787 19.0717Z" fill="#767676"/>
</svg>
