<svg width="209" height="24" viewBox="0 0 209 24" fill="none" xmlns="http://www.w3.org/2000/svg">
<path d="M7.776 24V4.576H0.32V0.959999H19.088V4.576H11.632V24H7.776ZM21.3163 24V0.959999H36.1963V4.576H25.1723V10.256H34.2763V13.872H25.1723V20.384H36.1963V24H21.3163ZM39.705 24V0.959999H43.609L54.297 17.2V0.959999H58.201V24H54.297L43.609 7.76V24H39.705ZM62.3437 24V0.959999H69.6877C69.8797 0.959999 70.2584 0.965333 70.8237 0.976C71.3997 0.986666 71.9544 1.024 72.4877 1.088C74.3117 1.32267 75.8531 1.97333 77.1117 3.04C78.3811 4.096 79.3411 5.44533 79.9917 7.088C80.6424 8.73067 80.9677 10.528 80.9677 12.48C80.9677 14.432 80.6424 16.2293 79.9917 17.872C79.3411 19.5147 78.3811 20.8693 77.1117 21.936C75.8531 22.992 74.3117 23.6373 72.4877 23.872C71.9651 23.936 71.4157 23.9733 70.8397 23.984C70.2637 23.9947 69.8797 24 69.6877 24H62.3437ZM66.2637 20.368H69.6877C70.0077 20.368 70.4131 20.3573 70.9037 20.336C71.4051 20.3147 71.8477 20.2667 72.2317 20.192C73.3197 19.9893 74.2051 19.504 74.8877 18.736C75.5704 17.968 76.0717 17.0347 76.3917 15.936C76.7224 14.8373 76.8877 13.6853 76.8877 12.48C76.8877 11.232 76.7224 10.0587 76.3917 8.96C76.0611 7.86133 75.5491 6.93867 74.8557 6.192C74.1731 5.44533 73.2984 4.97067 72.2317 4.768C71.8477 4.68267 71.4051 4.63467 70.9037 4.624C70.4131 4.60267 70.0077 4.592 69.6877 4.592H66.2637V20.368ZM84.42 24V0.959999H99.3V4.576H88.276V10.256H97.38V13.872H88.276V20.384H99.3V24H84.42ZM102.809 24V0.959999H112.329C112.553 0.959999 112.841 0.970666 113.193 0.991999C113.545 1.00267 113.87 1.03467 114.169 1.088C115.502 1.29067 116.601 1.73333 117.465 2.416C118.339 3.09867 118.985 3.96267 119.401 5.008C119.827 6.04267 120.041 7.19467 120.041 8.464C120.041 10.3413 119.566 11.9573 118.617 13.312C117.667 14.656 116.211 15.488 114.249 15.808L112.601 15.952H106.665V24H102.809ZM116.041 24L111.497 14.624L115.417 13.76L120.409 24H116.041ZM106.665 12.352H112.169C112.382 12.352 112.622 12.3413 112.889 12.32C113.155 12.2987 113.401 12.256 113.625 12.192C114.265 12.032 114.766 11.7493 115.129 11.344C115.502 10.9387 115.763 10.48 115.913 9.968C116.073 9.456 116.153 8.95467 116.153 8.464C116.153 7.97333 116.073 7.472 115.913 6.96C115.763 6.43733 115.502 5.97333 115.129 5.568C114.766 5.16267 114.265 4.88 113.625 4.72C113.401 4.656 113.155 4.61867 112.889 4.608C112.622 4.58667 112.382 4.576 112.169 4.576H106.665V12.352Z" fill="#FF8F21"/>
<path d="M129.68 24V0.959999H139.2C139.424 0.959999 139.712 0.970666 140.064 0.991999C140.416 1.00267 140.741 1.03467 141.04 1.088C142.373 1.29067 143.472 1.73333 144.336 2.416C145.211 3.09867 145.856 3.96267 146.272 5.008C146.699 6.04267 146.912 7.19467 146.912 8.464C146.912 9.72267 146.699 10.8747 146.272 11.92C145.845 12.9547 145.195 13.8133 144.32 14.496C143.456 15.1787 142.363 15.6213 141.04 15.824C140.741 15.8667 140.411 15.8987 140.048 15.92C139.696 15.9413 139.413 15.952 139.2 15.952H133.536V24H129.68ZM133.536 12.352H139.04C139.253 12.352 139.493 12.3413 139.76 12.32C140.027 12.2987 140.272 12.256 140.496 12.192C141.136 12.032 141.637 11.7493 142 11.344C142.373 10.9387 142.635 10.48 142.784 9.968C142.944 9.456 143.024 8.95467 143.024 8.464C143.024 7.97333 142.944 7.472 142.784 6.96C142.635 6.43733 142.373 5.97333 142 5.568C141.637 5.16267 141.136 4.88 140.496 4.72C140.272 4.656 140.027 4.61867 139.76 4.608C139.493 4.58667 139.253 4.576 139.04 4.576H133.536V12.352ZM146.594 24L153.858 0.959999H159.506L166.77 24H162.802L156.21 3.328H157.074L150.562 24H146.594ZM150.642 19.008V15.408H162.738V19.008H150.642ZM169.332 24V0.959999H178.852C179.076 0.959999 179.364 0.970666 179.716 0.991999C180.068 1.00267 180.394 1.03467 180.692 1.088C182.026 1.29067 183.124 1.73333 183.988 2.416C184.863 3.09867 185.508 3.96267 185.924 5.008C186.351 6.04267 186.564 7.19467 186.564 8.464C186.564 10.3413 186.09 11.9573 185.14 13.312C184.191 14.656 182.735 15.488 180.772 15.808L179.124 15.952H173.188V24H169.332ZM182.564 24L178.02 14.624L181.94 13.76L186.932 24H182.564ZM173.188 12.352H178.692C178.906 12.352 179.146 12.3413 179.412 12.32C179.679 12.2987 179.924 12.256 180.148 12.192C180.788 12.032 181.29 11.7493 181.652 11.344C182.026 10.9387 182.287 10.48 182.436 9.968C182.596 9.456 182.676 8.95467 182.676 8.464C182.676 7.97333 182.596 7.472 182.436 6.96C182.287 6.43733 182.026 5.97333 181.652 5.568C181.29 5.16267 180.788 4.88 180.148 4.72C179.924 4.656 179.679 4.61867 179.412 4.608C179.146 4.58667 178.906 4.576 178.692 4.576H173.188V12.352ZM190.127 24V0.959999H193.983V11.648L203.183 0.959999H207.919L198.015 12.256L208.591 24H203.695L193.983 13.248V24H190.127Z" fill="white" fill-opacity="0.8"/>
</svg>
