<svg width="98" height="35" viewBox="0 0 98 35" fill="none" xmlns="http://www.w3.org/2000/svg">
<path d="M6.42986 24.6578C6.83644 25.7374 7.39933 26.6605 8.11865 27.4271C8.83797 28.1938 9.69015 28.7805 10.6752 29.1873C11.6603 29.5941 12.7314 29.7975 13.8886 29.7975C15.0145 29.7975 16.0699 29.5863 17.055 29.1638C18.0402 28.7413 18.9001 28.1468 19.635 27.3802C20.3699 26.6135 20.9407 25.6983 21.3473 24.6344C21.7538 23.5704 21.9571 22.3814 21.9571 21.0671V0.790039H26.8826V33.6463H22.004V30.5954C20.9094 31.7531 19.6193 32.6449 18.1339 33.2709C16.6483 33.8966 15.0457 34.2096 13.3257 34.2096C11.5743 34.2096 9.9403 33.9044 8.42351 33.2942C6.90681 32.6841 5.59325 31.8158 4.48313 30.6892C3.37302 29.5627 2.49727 28.2095 1.85622 26.6292C1.21506 25.049 0.894531 23.2889 0.894531 21.3487V0.790039H5.82005V21.0671C5.82005 22.3814 6.02328 23.5782 6.42986 24.6578Z" fill="#0A0786"/>
<path d="M35.3729 0.790039V12.7591C36.4674 11.6639 37.7341 10.7956 39.1726 10.1541C40.6111 9.51256 42.1748 9.19184 43.8635 9.19184C45.6149 9.19184 47.2566 9.52034 48.7891 10.1775C50.3214 10.8346 51.6505 11.7264 52.7764 12.853C53.9023 13.9795 54.7936 15.3094 55.4503 16.8426C56.107 18.376 56.4353 20.0032 56.4353 21.7242C56.4353 23.4452 56.107 25.0645 55.4503 26.5821C54.7936 28.0998 53.9023 29.422 52.7764 30.5483C51.6505 31.6749 50.3214 32.5667 48.7891 33.2238C47.2566 33.8809 45.6148 34.2095 43.8635 34.2095C42.1747 34.2095 40.6033 33.8887 39.1491 33.2472C37.6949 32.6058 36.4205 31.7374 35.3259 30.6422V33.6462H30.635V0.790039H35.3729ZM35.9123 24.9629C36.3344 25.9643 36.9209 26.8404 37.6715 27.5914C38.422 28.3424 39.2977 28.937 40.2984 29.3751C41.2992 29.8132 42.3781 30.0322 43.5352 30.0322C44.6611 30.0322 45.7243 29.8132 46.725 29.3751C47.7258 28.937 48.5935 28.3425 49.3286 27.5914C50.0635 26.8405 50.6498 25.9643 51.0877 24.9629C51.5255 23.9616 51.7444 22.882 51.7444 21.7242C51.7444 20.5664 51.5255 19.479 51.0877 18.462C50.6498 17.445 50.0635 16.5611 49.3286 15.8101C48.5936 15.0592 47.7259 14.4724 46.725 14.05C45.7242 13.6276 44.661 13.4162 43.5352 13.4162C42.4094 13.4162 41.3461 13.6275 40.3454 14.05C39.3447 14.4725 38.4691 15.0592 37.7184 15.8101C36.9679 16.5611 36.3737 17.445 35.9359 18.462C35.498 19.479 35.2791 20.5664 35.2791 21.7242C35.279 22.882 35.4902 23.9616 35.9123 24.9629Z" fill="#0A0786"/>
<path d="M59.1087 16.8899C59.7341 15.3879 60.5942 14.0659 61.6887 12.9238C62.7831 11.7816 64.0811 10.882 65.5822 10.2249C67.0834 9.56776 68.7096 9.23926 70.4608 9.23926C72.1809 9.23926 73.7758 9.55219 75.2457 10.1779C76.7155 10.8038 77.982 11.6722 79.0453 12.783C80.1086 13.8938 80.9375 15.2082 81.5315 16.7257C82.1257 18.2434 82.4228 19.8941 82.4228 21.6777V23.2267H62.9553C63.1117 24.1967 63.4245 25.0964 63.8935 25.9255C64.3627 26.7547 64.949 27.4744 65.6526 28.0846C66.3563 28.6949 67.1537 29.1721 68.045 29.5162C68.9364 29.8604 69.8823 30.0326 70.8831 30.0326C73.729 30.0326 76.0276 28.8591 77.7789 26.5122L81.2033 29.0468C80.0149 30.6427 78.5451 31.8944 76.7939 32.8018C75.0425 33.7092 73.0723 34.163 70.8832 34.163C69.1006 34.163 67.4353 33.8499 65.8873 33.2242C64.3393 32.5984 62.9946 31.7222 61.8531 30.5956C60.7116 29.4691 59.8125 28.147 59.1558 26.6294C58.4991 25.1119 58.1707 23.4611 58.1707 21.6775C58.1704 19.9879 58.4833 18.392 59.1087 16.8899ZM65.6995 15.0358C64.3704 16.1467 63.487 17.6253 63.0492 19.4715H77.6381C77.2316 17.6253 76.3637 16.1467 75.0346 15.0358C73.7055 13.9251 72.1496 13.3696 70.3671 13.3696C68.5845 13.3696 67.0287 13.9251 65.6995 15.0358Z" fill="#0A0786"/>
<path d="M91.2884 15.5755C90.2877 16.6707 89.7873 18.157 89.7873 20.0346V33.6466H85.0493V9.70839H89.7403V12.6655C90.3345 11.6954 91.1086 10.9287 92.0624 10.3655C93.0162 9.80217 94.1499 9.52051 95.4634 9.52051H97.1052V13.9327H95.135C93.5714 13.9328 92.2892 14.4803 91.2884 15.5755Z" fill="#0A0786"/>
</svg>
