<svg width="151" height="35" viewBox="0 0 151 35" fill="none" xmlns="http://www.w3.org/2000/svg">
<path d="M147.057 0.790039L138.879 18.4059L135.803 11.7312H132.477L137.535 22.6493H140.223L150.361 0.790039H147.057Z" fill="#0A0786"/>
<path d="M111.974 33.4989H118.557V21.365C118.557 18.5896 120.152 16.6399 122.521 16.6399C124.8 16.6399 125.984 18.2455 125.984 20.5622V33.4989H132.568V19.3007C132.568 14.4838 129.698 11.0891 125.05 11.0891C122.089 11.0891 120.015 12.3736 118.466 14.7132H118.33V11.7313H111.951L111.974 33.4989ZM99.0335 11.135C92.1535 11.135 87.5516 16.1124 87.5516 22.6725C87.5516 29.1867 92.1535 34.2099 99.0335 34.2099C105.914 34.2099 110.515 29.1867 110.515 22.6725C110.538 16.1124 105.914 11.135 99.0335 11.135ZM98.988 29.3014C95.8669 29.3014 94.2038 26.6636 94.2038 22.6725C94.2038 18.6355 95.8441 16.0436 98.988 16.0436C102.109 16.0436 103.84 18.6355 103.84 22.6725C103.863 26.6636 102.132 29.3014 98.988 29.3014ZM68.7795 33.4989H87.2782V28.2692H76.7987V28.1315L86.8226 16.8234V11.7084H68.7795V16.9611H78.9174V17.0987L68.7795 28.4985V33.4989ZM60.3275 33.4989H66.957V11.7313H60.3275V33.4989ZM44.9499 33.4989H51.5566V23.4982C51.5566 18.9566 54.2676 16.9381 58.3911 17.5116H58.5278V11.7772C58.1861 11.6396 57.7988 11.6167 57.1837 11.6167C54.6093 11.6167 52.8779 12.8094 51.3971 15.3554H51.2604V11.7313H44.9499V33.4989ZM32.8301 29.3243C29.914 29.3243 28.1371 27.4205 27.7954 24.4845H43.378C43.4236 19.8053 42.1934 16.0665 39.619 13.7269C37.7965 12.0295 35.4044 11.0891 32.3517 11.0891C25.8361 11.0891 21.3254 16.0665 21.3254 22.5807C21.3254 29.1408 25.6311 34.1411 32.7845 34.1411C35.4956 34.1411 37.637 33.4071 39.414 32.1915C41.3049 30.884 42.6718 28.9573 43.0363 27.0535H36.703C36.0879 28.4756 34.7665 29.3243 32.8301 29.3243ZM32.4884 15.8371C34.8121 15.8371 36.4068 17.5804 36.6802 20.1264H27.8409C28.3649 17.5574 29.7546 15.8371 32.4884 15.8371ZM8.15759 33.4989H15.0832L22.6011 11.7313H15.9717L11.7571 25.7231H11.666L7.45136 11.7313H0.639648L8.15759 33.4989ZM60.3275 3.97852H66.957V9.89635H60.3275V3.97852Z" fill="#0A0786"/>
</svg>
